<mxfile host="app.diagrams.net" modified="2022-06-29T23:09:25.374Z" agent="5.0 (Windows NT 10.0; Win64; x64) AppleWebKit/537.36 (KHTML, like Gecko) Chrome/103.0.0.0 Safari/537.36" etag="FvtvOqMcqy4zLA4DC_WL" version="20.0.4" type="github">
  <diagram id="MgW__dU4i9I_C7ViRpQG" name="Page-1">
    <mxGraphModel dx="868" dy="450" grid="1" gridSize="10" guides="1" tooltips="1" connect="1" arrows="1" fold="1" page="1" pageScale="1" pageWidth="827" pageHeight="1169" math="0" shadow="0">
      <root>
        <mxCell id="0" />
        <mxCell id="1" parent="0" />
        <mxCell id="LDGVXsy9DC3FlglsjrdZ-1" value="AplicaciÃ³n JAVA" style="rounded=0;whiteSpace=wrap;html=1;" parent="1" vertex="1">
          <mxGeometry x="110" y="320" width="120" height="60" as="geometry" />
        </mxCell>
        <mxCell id="LDGVXsy9DC3FlglsjrdZ-3" value="MySQL&lt;br&gt;" style="shape=cylinder3;whiteSpace=wrap;html=1;boundedLbl=1;backgroundOutline=1;size=15;" parent="1" vertex="1">
          <mxGeometry x="650" y="180" width="60" height="80" as="geometry" />
        </mxCell>
        <mxCell id="LDGVXsy9DC3FlglsjrdZ-4" value="" style="html=1;verticalLabelPosition=bottom;align=center;labelBackgroundColor=#ffffff;verticalAlign=top;strokeWidth=2;strokeColor=#0080F0;shadow=0;dashed=0;shape=mxgraph.ios7.icons.tools;pointerEvents=1" parent="1" vertex="1">
          <mxGeometry x="500" y="210" width="60" height="52.85" as="geometry" />
        </mxCell>
        <mxCell id="LDGVXsy9DC3FlglsjrdZ-5" value="" style="endArrow=classic;html=1;rounded=0;" parent="1" edge="1">
          <mxGeometry width="50" height="50" relative="1" as="geometry">
            <mxPoint x="580" y="230" as="sourcePoint" />
            <mxPoint x="640" y="230" as="targetPoint" />
            <Array as="points">
              <mxPoint x="610" y="230" />
            </Array>
          </mxGeometry>
        </mxCell>
        <mxCell id="LDGVXsy9DC3FlglsjrdZ-7" value="" style="endArrow=classic;html=1;rounded=0;entryX=-0.05;entryY=0.587;entryDx=0;entryDy=0;entryPerimeter=0;exitX=1;exitY=0.568;exitDx=0;exitDy=0;exitPerimeter=0;" parent="1" source="LDGVXsy9DC3FlglsjrdZ-20" target="LDGVXsy9DC3FlglsjrdZ-4" edge="1">
          <mxGeometry width="50" height="50" relative="1" as="geometry">
            <mxPoint x="370" y="340" as="sourcePoint" />
            <mxPoint x="380" y="190" as="targetPoint" />
            <Array as="points">
              <mxPoint x="410" y="350" />
              <mxPoint x="410" y="241" />
            </Array>
          </mxGeometry>
        </mxCell>
        <mxCell id="LDGVXsy9DC3FlglsjrdZ-10" value="Driver MySQL" style="text;html=1;align=center;verticalAlign=middle;resizable=0;points=[];autosize=1;strokeColor=none;fillColor=none;" parent="1" vertex="1">
          <mxGeometry x="480" y="262.85" width="100" height="30" as="geometry" />
        </mxCell>
        <mxCell id="LDGVXsy9DC3FlglsjrdZ-11" value="MySqlConnector.getConnection();" style="text;html=1;align=center;verticalAlign=middle;resizable=0;points=[];autosize=1;strokeColor=none;fillColor=none;" parent="1" vertex="1">
          <mxGeometry x="430" y="290" width="200" height="30" as="geometry" />
        </mxCell>
        <mxCell id="LDGVXsy9DC3FlglsjrdZ-12" value="SQL Server" style="shape=cylinder3;whiteSpace=wrap;html=1;boundedLbl=1;backgroundOutline=1;size=15;" parent="1" vertex="1">
          <mxGeometry x="650" y="422.85" width="60" height="80" as="geometry" />
        </mxCell>
        <mxCell id="LDGVXsy9DC3FlglsjrdZ-13" value="" style="html=1;verticalLabelPosition=bottom;align=center;labelBackgroundColor=#ffffff;verticalAlign=top;strokeWidth=2;strokeColor=#0080F0;shadow=0;dashed=0;shape=mxgraph.ios7.icons.tools;pointerEvents=1" parent="1" vertex="1">
          <mxGeometry x="500" y="450" width="60" height="52.85" as="geometry" />
        </mxCell>
        <mxCell id="LDGVXsy9DC3FlglsjrdZ-14" value="" style="endArrow=classic;html=1;rounded=0;" parent="1" edge="1">
          <mxGeometry width="50" height="50" relative="1" as="geometry">
            <mxPoint x="580" y="470" as="sourcePoint" />
            <mxPoint x="640" y="470" as="targetPoint" />
            <Array as="points">
              <mxPoint x="610" y="470" />
            </Array>
          </mxGeometry>
        </mxCell>
        <mxCell id="LDGVXsy9DC3FlglsjrdZ-15" value="" style="endArrow=classic;html=1;rounded=0;entryX=0.017;entryY=0.451;entryDx=0;entryDy=0;entryPerimeter=0;" parent="1" target="LDGVXsy9DC3FlglsjrdZ-13" edge="1">
          <mxGeometry width="50" height="50" relative="1" as="geometry">
            <mxPoint x="410" y="340" as="sourcePoint" />
            <mxPoint x="360" y="430" as="targetPoint" />
            <Array as="points">
              <mxPoint x="410" y="474" />
            </Array>
          </mxGeometry>
        </mxCell>
        <mxCell id="LDGVXsy9DC3FlglsjrdZ-16" value="Driver MySQL Server" style="text;html=1;align=center;verticalAlign=middle;resizable=0;points=[];autosize=1;strokeColor=none;fillColor=none;" parent="1" vertex="1">
          <mxGeometry x="440" y="502.85" width="140" height="30" as="geometry" />
        </mxCell>
        <mxCell id="LDGVXsy9DC3FlglsjrdZ-19" value="SqlServerConnectionProvider.connection();" style="text;html=1;align=center;verticalAlign=middle;resizable=0;points=[];autosize=1;strokeColor=none;fillColor=none;" parent="1" vertex="1">
          <mxGeometry x="395" y="535" width="250" height="30" as="geometry" />
        </mxCell>
        <mxCell id="LDGVXsy9DC3FlglsjrdZ-20" value="" style="html=1;verticalLabelPosition=bottom;align=center;labelBackgroundColor=#ffffff;verticalAlign=top;strokeWidth=2;strokeColor=#0080F0;shadow=0;dashed=0;shape=mxgraph.ios7.icons.tools;pointerEvents=1" parent="1" vertex="1">
          <mxGeometry x="290" y="320" width="60" height="52.85" as="geometry" />
        </mxCell>
        <mxCell id="LDGVXsy9DC3FlglsjrdZ-21" value="" style="endArrow=classic;html=1;rounded=0;entryX=-0.05;entryY=0.549;entryDx=0;entryDy=0;entryPerimeter=0;" parent="1" target="LDGVXsy9DC3FlglsjrdZ-20" edge="1">
          <mxGeometry width="50" height="50" relative="1" as="geometry">
            <mxPoint x="230" y="350" as="sourcePoint" />
            <mxPoint x="280" y="300" as="targetPoint" />
            <Array as="points" />
          </mxGeometry>
        </mxCell>
        <mxCell id="LDGVXsy9DC3FlglsjrdZ-22" value="JDBC" style="text;html=1;align=center;verticalAlign=middle;resizable=0;points=[];autosize=1;strokeColor=none;fillColor=none;" parent="1" vertex="1">
          <mxGeometry x="295" y="375" width="50" height="30" as="geometry" />
        </mxCell>
        <mxCell id="LDGVXsy9DC3FlglsjrdZ-23" value="DriverManager.getConnection();" style="text;html=1;align=center;verticalAlign=middle;resizable=0;points=[];autosize=1;strokeColor=none;fillColor=none;" parent="1" vertex="1">
          <mxGeometry x="225" y="405" width="190" height="30" as="geometry" />
        </mxCell>
        <mxCell id="LDGVXsy9DC3FlglsjrdZ-24" value="&lt;font style=&quot;font-size: 16px;&quot;&gt;jsbc:mysql://localhost:3306/base_de_pruebas&lt;/font&gt;" style="text;html=1;align=center;verticalAlign=middle;resizable=0;points=[];autosize=1;strokeColor=none;fillColor=none;" parent="1" vertex="1">
          <mxGeometry x="280" y="605" width="350" height="30" as="geometry" />
        </mxCell>
        <mxCell id="LDGVXsy9DC3FlglsjrdZ-25" value="Ejemplo de direccion:" style="text;html=1;align=center;verticalAlign=middle;resizable=0;points=[];autosize=1;strokeColor=none;fillColor=none;fontSize=16;" parent="1" vertex="1">
          <mxGeometry x="110" y="605" width="180" height="30" as="geometry" />
        </mxCell>
      </root>
    </mxGraphModel>
  </diagram>
</mxfile>
